<?xml version="1.0" encoding="UTF-8" standalone="no"?>
<svg
   width="748"
   height="140"
   viewBox="0 17 748 140"
   version="1.1"
   preserveAspectRatio="none"
   xml:space="preserve"
   style="clip-rule:evenodd;fill-rule:evenodd;stroke-linecap:round;stroke-linejoin:round;stroke-miterlimit:1.5"
   id="svg37"
   sodipodi:docname="drama ribbon.svg"
   inkscape:version="1.3.2 (091e20e, 2023-11-25, custom)"
   xmlns:inkscape="http://www.inkscape.org/namespaces/inkscape"
   xmlns:sodipodi="http://sodipodi.sourceforge.net/DTD/sodipodi-0.dtd"
   xmlns:xlink="http://www.w3.org/1999/xlink"
   xmlns="http://www.w3.org/2000/svg"
   xmlns:svg="http://www.w3.org/2000/svg"><defs
   id="defs37"><rect
     x="136.67422"
     y="202.36261"
     width="550.93481"
     height="59.331444"
     id="rect11" /></defs><sodipodi:namedview
   id="namedview37"
   pagecolor="#000000"
   bordercolor="#000000"
   borderopacity="0.25"
   inkscape:showpageshadow="2"
   inkscape:pageopacity="0.0"
   inkscape:pagecheckerboard="0"
   inkscape:deskcolor="#d1d1d1"
   inkscape:zoom="1.3348059"
   inkscape:cx="367.84376"
   inkscape:cy="289.55522"
   inkscape:window-width="1920"
   inkscape:window-height="991"
   inkscape:window-x="-9"
   inkscape:window-y="-9"
   inkscape:window-maximized="1"
   inkscape:current-layer="g37" />
    <g
   transform="matrix(0.24200557,0,0,0.24200557,-246.83888,121.46466)"
   id="g37">
        
        
        
    <path
   id="path16"
   style="clip-rule:evenodd;display:inline;fill:#c0c0c0;fill-opacity:1;fill-rule:evenodd;stroke:none;stroke-width:2.47928;stroke-linecap:round;stroke-linejoin:round;stroke-miterlimit:1.5;stroke-dasharray:none;stroke-opacity:1"
   d="m 3571.0959,-225.16732 c 167.5422,-41.85223 465.2887,79.60211 465.2887,79.60211 l -96.315,-112.73241 39.4016,-31.74019 c 0,0 -361.8769,-147.61399 -512.2211,-61.2914 -13.4222,7.70658 -19.3557,16.40244 -19.2952,25.8734 l -0.5803,3.48388 58.2241,146.70836 c 10.6913,43.94007 136.636,102.700681 241.8328,156.796891 l -2.8658,0.67981 C 3264.0216,58.691451 1835.1632,-550.26968 1510.3032,-399.48674 c -12.7115,5.90003 -18.5278,13.1146 -18.8837,21.37773 l 0.2572,6.9931 57.2428,143.27277 c 8.58,36.48689 106.9269,90.25012 190.1364,141.845191 l -1.9842,0.33838 c -203.5631,44.94332 -612.0288,-173.732541 -612.0288,-173.732541 l 89.5964,110.93234 -32.683,33.54026 c 0,0 476.5365,255.11792 656.6936,157.606461 12.8738,-6.96806 18.2681,-15.28269 17.8184,-24.64074 l -58.3145,-153.761031 -2.4729,-3.69344 c -18.6159,-35.95106 -100.6053,-83.15619 -174.7872,-128.42177 l -4.1259,-2.88737 c 422.5227,-87.02355 1876.4379,534.24782 2253.2544,379.0737 14.8559,-6.11772 21.5472,-13.495299 21.746,-21.893179 l -56.7697,-151.03613 -2.6489,-3.46132 C 3812.1682,-108.99296 3674.4,-168.60775 3569.5093,-225.32188 Z"
   sodipodi:nodetypes="ccccscccccsccccccccscccccsccccc" /><path
   id="path17"
   style="clip-rule:evenodd;display:inline;fill:none;fill-opacity:1;fill-rule:evenodd;stroke:#000000;stroke-width:5.37178;stroke-linecap:round;stroke-linejoin:round;stroke-miterlimit:1.5;stroke-dasharray:none;stroke-opacity:1"
   d="M 1739.0559,-85.997949 C 1655.8464,-137.59302 1557.4995,-191.35625 1548.9195,-227.84314 l -57.2428,-143.27277 m 125.0911,100.39851 c 422.5227,-87.02355 1876.4379,534.24782 2253.2544,379.0737 14.8559,-6.11772 21.5472,-13.495299 21.746,-21.893179 l -56.7697,-151.03613 m -87.567,46.10633 C 3642.2347,-72.562889 3516.29,-131.3235 3505.5987,-175.26357 l -58.2241,-146.70836 m 123.7213,96.80461 c 167.5422,-41.85223 465.2887,79.60211 465.2887,79.60211 l -96.315,-112.73241 39.4016,-31.74019 c 0,0 -361.8769,-147.61403 -512.2211,-61.2914 -135.2717,77.66847 490.0912,255.817521 345.8587,315.212911 C 3419.7319,125.87756 1852.5064,-558.31949 1510.3032,-399.48674 c -121.8078,56.53679 389.5328,233.77878 271.4333,297.70109 -180.1573,97.511601 -656.6936,-157.60646 -656.6936,-157.60646 l 89.5964,110.93234 -32.683,33.54026 c 0,0 476.5365,255.11792 656.6936,157.606461 12.8738,-6.96806 18.2681,-15.28269 17.8184,-24.64074 l -58.3145,-153.761031" /><g
   transform="matrix(1.8124188,0,0,1.8124188,-598.95072,-1676.3935)"
   id="g36"
   style="clip-rule:evenodd;display:none;fill-rule:evenodd;stroke-linecap:round;stroke-linejoin:round;stroke-miterlimit:1.5">
            <g
   transform="matrix(0.664752,0,0,0.664752,287.764,4.7659)"
   id="g35">
                <path
   style="clip-rule:evenodd;fill:#ffffff;fill-opacity:1;fill-rule:evenodd;stroke:#000000;stroke-width:7.29155;stroke-linecap:round;stroke-linejoin:round;stroke-miterlimit:1.5;stroke-dasharray:none;stroke-opacity:1"
   d="m 2204.11,1990.33 c -9.98,37.32 -27.77,73.96 -55.23,109.99 -135.69,-20.33 -202.3,-104.13 -250,-228.74 -4.23,-10.91 -3.03,-23.18 3.22,-33.07 6.26,-9.88 16.83,-16.22 28.5,-17.07 79.24,-5.62 150.29,-28.14 211.03,-71.96 7.67,-5.57 17.55,-7.15 26.57,-4.24 9.03,2.91 16.13,9.95 19.12,18.95 0.11,-0.04 0.11,-0.04 0.11,-0.04 -24.72,82.45 -18,157.57 16.68,226.18 z"
   id="path34"
   transform="translate(1.364266e-5)" /><path
   style="clip-rule:evenodd;fill:#ffffff;fill-opacity:1;fill-rule:evenodd;stroke:#000000;stroke-width:7.29155;stroke-linecap:round;stroke-linejoin:round;stroke-miterlimit:1.5;stroke-dasharray:none;stroke-opacity:1"
   d="m 2204.05,1989.03 c -38.8,-72.1 -38.98,-145.32 -16.35,-224.93 5.78,-20.35 13.06,-41.11 21.55,-62.38 4.3,-10.89 13.51,-19.1 24.82,-22.12 11.31,-3.01 23.39,-0.49 32.54,6.8 59.61,47.72 124.27,78.83 195.23,89.17 11.55,1.69 21.63,8.76 27.14,19.05 5.51,10.3 5.81,22.6 0.8,33.15 -51.2,108.95 -124.1,189.13 -252.07,211.6 -13.46,-16.76 -24.61,-33.52 -33.66,-50.34 z"
   id="path37"
   transform="translate(1.364266e-5)" /><path
   style="fill:#000000;fill-opacity:1;stroke:none;stroke-width:7.28995;stroke-dasharray:none;stroke-opacity:1"
   d="m 2229.61,1864.99 c 0,0 25.11,36.41 62.97,52.02 37.25,15.36 71.47,13.03 71.47,13.03 0,0 -54.27,62.02 -98.69,42.4 -50.01,-22.09 -35.75,-107.45 -35.75,-107.45 z"
   id="path43" /><path
   style="fill:#000000;fill-opacity:1;stroke:none;stroke-width:7.28995;stroke-dasharray:none;stroke-opacity:1"
   d="m 2292.53,1818.57 c 0,0 -13.45,-32.35 -36.35,-39.76 -20.66,-6.69 -41.56,11.07 -41.56,11.07 0,0 17.29,-3.18 37.08,2.4 19.72,5.55 40.83,26.29 40.83,26.29 z"
   id="path42" /><path
   style="fill:#000000;fill-opacity:1;stroke:none;stroke-width:7.28995;stroke-dasharray:none;stroke-opacity:1"
   d="m 2352.91,1841.14 c 0,0 31.7,-14.9 53.64,-4.99 19.79,8.94 23.32,36.14 23.32,36.14 0,0 -10.66,-13.98 -29.06,-23.16 -18.33,-9.15 -47.9,-7.99 -47.9,-7.99 z"
   id="path41" /><path
   style="fill:#000000;fill-opacity:1;stroke:none;stroke-width:7.28995;stroke-dasharray:none;stroke-opacity:1"
   d="m 2173.35,1886.97 c -3.75,2.26 -8.01,4.28 -12.85,5.87 -30.75,10.12 -50.65,-14.22 -50.65,-14.22 0,0 21.39,4.74 46.85,-2.24 5.73,-1.57 11.11,-3.69 15.99,-6"
   id="path40" /><path
   style="fill:#000000;fill-opacity:1;stroke:none;stroke-width:7.28995;stroke-dasharray:none;stroke-opacity:1"
   d="m 1968.53,1925.44 c 0,0 24.15,3.8 48.27,-4.21 25.05,-8.32 40.22,-24.13 40.22,-24.13 0,0 -3.05,31.29 -34.25,39.94 -32.69,9.06 -54.24,-11.6 -54.24,-11.6 z"
   id="path39" /><path
   style="fill:#000000;fill-opacity:1;stroke:none;stroke-width:7.28995;stroke-dasharray:none;stroke-opacity:1"
   d="m 2068.86,2055.84 c 0,0 -6.61,-65.9 39.45,-80.71 47.71,-15.34 79.11,36.11 79.11,36.11 0,0 -34.37,-3.37 -64.07,8.24 -31.57,12.34 -54.49,36.36 -54.49,36.36 z"
   id="path38" />
            </g>
        </g><path
   style="display:none;fill:none;fill-rule:evenodd;stroke:#ffffff;stroke-width:2.47928;stroke-linecap:round;stroke-linejoin:round;stroke-dasharray:none;stroke-opacity:1"
   d="m 1276.2426,558.87106 c 37.7749,-7.78019 424.3188,-102.76952 477.0747,-100.28798 537.3334,25.27516 1773.577,527.79208 2116.7049,386.49118 14.8559,-6.1177 21.5472,-13.4953 21.746,-21.89318"
   id="path11"
   sodipodi:nodetypes="ccsc" /><text
   xml:space="preserve"
   id="text11"
   style="font-style:normal;font-variant:normal;font-weight:normal;font-stretch:normal;font-size:121.209px;line-height:124.672px;font-family:'Colonna MT';-inkscape-font-specification:'Colonna MT, Normal';font-variant-ligatures:normal;font-variant-caps:normal;font-variant-numeric:normal;font-variant-east-asian:normal;text-align:center;letter-spacing:0.247928px;word-spacing:-0.826427px;text-anchor:middle;white-space:pre;fill:#000000;fill-opacity:1;fill-rule:evenodd;stroke:none;stroke-width:2.126;stroke-linecap:round;stroke-linejoin:round;stroke-dasharray:none;stroke-opacity:1"
   transform="matrix(1,0.01675786,0.32207725,1.0053973,-199.14354,-833.92422)"><textPath
     xlink:href="#path11"
     startOffset="50%"
     id="textPath17"
     inkscape:label="textPath17"
     style="font-size:121.209px;line-height:124.672px">in gaffo speramus</textPath></text></g>
</svg>
