<?xml version="1.0" encoding="UTF-8" standalone="no"?>
<svg
   width="748"
   height="606.375"
   viewBox="0 0 748 606.375"
   version="1.1"
   xml:space="preserve"
   style="clip-rule:evenodd;fill-rule:evenodd;stroke-linecap:round;stroke-linejoin:round;stroke-miterlimit:1.5"
   id="svg37"
   sodipodi:docname="drama masks.svg"
   inkscape:version="1.3.2 (091e20e, 2023-11-25, custom)"
   xmlns:inkscape="http://www.inkscape.org/namespaces/inkscape"
   xmlns:sodipodi="http://sodipodi.sourceforge.net/DTD/sodipodi-0.dtd"
   xmlns="http://www.w3.org/2000/svg"
   xmlns:svg="http://www.w3.org/2000/svg"><defs
   id="defs37" /><sodipodi:namedview
   id="namedview37"
   pagecolor="#ffffff"
   bordercolor="#000000"
   borderopacity="0.25"
   inkscape:showpageshadow="2"
   inkscape:pageopacity="0.0"
   inkscape:pagecheckerboard="0"
   inkscape:deskcolor="#d1d1d1"
   inkscape:zoom="0.47192514"
   inkscape:cx="347.51275"
   inkscape:cy="621.92068"
   inkscape:window-width="1920"
   inkscape:window-height="991"
   inkscape:window-x="-9"
   inkscape:window-y="-9"
   inkscape:window-maximized="1"
   inkscape:current-layer="g36" />
    <g
   transform="translate(-2192.6,-339.802)"
   id="g37">
        
        
        <g
   transform="matrix(1.8124188,0,0,1.8124188,-598.9507,-1540.8772)"
   id="g36">
            <g
   transform="matrix(0.664752,0,0,0.664752,287.764,-50.995211)"
   id="g35">
                <path
   style="clip-rule:evenodd;fill:#ffffff;fill-opacity:1;fill-rule:evenodd;stroke:#000000;stroke-width:7.28995;stroke-linecap:round;stroke-linejoin:round;stroke-miterlimit:1.5;stroke-dasharray:none;stroke-opacity:1"
   d="m 2204.11,1990.33 c -9.98,37.32 -27.77,73.96 -55.23,109.99 -135.69,-20.33 -202.3,-104.13 -250,-228.74 -4.23,-10.91 -3.03,-23.18 3.22,-33.07 6.26,-9.88 16.83,-16.22 28.5,-17.07 79.24,-5.62 150.29,-28.14 211.03,-71.96 7.67,-5.57 17.55,-7.15 26.57,-4.24 9.03,2.91 16.13,9.95 19.12,18.95 0.11,-0.04 0.11,-0.04 0.11,-0.04 -24.72,82.45 -18,157.57 16.68,226.18 z"
   id="path34"
   transform="translate(1.364266e-5)" /><path
   style="clip-rule:evenodd;fill:#ffffff;fill-opacity:1;fill-rule:evenodd;stroke:#000000;stroke-width:7.28995;stroke-linecap:round;stroke-linejoin:round;stroke-miterlimit:1.5;stroke-dasharray:none;stroke-opacity:1"
   d="m 2204.05,1989.03 c -38.8,-72.1 -38.98,-145.32 -16.35,-224.93 5.78,-20.35 13.06,-41.11 21.55,-62.38 4.3,-10.89 13.51,-19.1 24.82,-22.12 11.31,-3.01 23.39,-0.49 32.54,6.8 59.61,47.72 124.27,78.83 195.23,89.17 11.55,1.69 21.63,8.76 27.14,19.05 5.51,10.3 5.81,22.6 0.8,33.15 -51.2,108.95 -124.1,189.13 -252.07,211.6 -13.46,-16.76 -24.61,-33.52 -33.66,-50.34 z"
   id="path37"
   transform="translate(1.364266e-5)" /><path
   style="fill:#000000;fill-opacity:1;stroke:none;stroke-width:7.28995;stroke-dasharray:none;stroke-opacity:1"
   d="m 2229.61,1864.99 c 0,0 25.11,36.41 62.97,52.02 37.25,15.36 71.47,13.03 71.47,13.03 0,0 -54.27,62.02 -98.69,42.4 -50.01,-22.09 -35.75,-107.45 -35.75,-107.45 z"
   id="path43" /><path
   style="fill:#000000;fill-opacity:1;stroke:none;stroke-width:7.28995;stroke-dasharray:none;stroke-opacity:1"
   d="m 2292.53,1818.57 c 0,0 -13.45,-32.35 -36.35,-39.76 -20.66,-6.69 -41.56,11.07 -41.56,11.07 0,0 17.29,-3.18 37.08,2.4 19.72,5.55 40.83,26.29 40.83,26.29 z"
   id="path42" /><path
   style="fill:#000000;fill-opacity:1;stroke:none;stroke-width:7.28995;stroke-dasharray:none;stroke-opacity:1"
   d="m 2352.91,1841.14 c 0,0 31.7,-14.9 53.64,-4.99 19.79,8.94 23.32,36.14 23.32,36.14 0,0 -10.66,-13.98 -29.06,-23.16 -18.33,-9.15 -47.9,-7.99 -47.9,-7.99 z"
   id="path41" /><path
   style="fill:#000000;fill-opacity:1;stroke:none;stroke-width:7.28995;stroke-dasharray:none;stroke-opacity:1"
   d="m 2173.35,1886.97 c -3.75,2.26 -8.01,4.28 -12.85,5.87 -30.75,10.12 -50.65,-14.22 -50.65,-14.22 0,0 21.39,4.74 46.85,-2.24 5.73,-1.57 11.11,-3.69 15.99,-6"
   id="path40" /><path
   style="fill:#000000;fill-opacity:1;stroke:none;stroke-width:7.28995;stroke-dasharray:none;stroke-opacity:1"
   d="m 1968.53,1925.44 c 0,0 24.15,3.8 48.27,-4.21 25.05,-8.32 40.22,-24.13 40.22,-24.13 0,0 -3.05,31.29 -34.25,39.94 -32.69,9.06 -54.24,-11.6 -54.24,-11.6 z"
   id="path39" /><path
   style="fill:#000000;fill-opacity:1;stroke:none;stroke-width:7.28995;stroke-dasharray:none;stroke-opacity:1"
   d="m 2068.86,2055.84 c 0,0 -6.61,-65.9 39.45,-80.71 47.71,-15.34 79.11,36.11 79.11,36.11 0,0 -34.37,-3.37 -64.07,8.24 -31.57,12.34 -54.49,36.36 -54.49,36.36 z"
   id="path38" />
            </g>
        </g>
    </g>
</svg>
