<?xml version="1.0" encoding="UTF-8" standalone="no"?>
<!-- Created with Inkscape (http://www.inkscape.org/) -->

<svg
   width="500"
   height="472"
   viewBox="0 0 132.29167 124.88334"
   version="1.1"
   id="svg1"
   inkscape:version="1.3.2 (091e20e, 2023-11-25, custom)"
   sodipodi:docname="obp logo.svg"
   xml:space="preserve"
   xmlns:inkscape="http://www.inkscape.org/namespaces/inkscape"
   xmlns:sodipodi="http://sodipodi.sourceforge.net/DTD/sodipodi-0.dtd"
   xmlns="http://www.w3.org/2000/svg"
   xmlns:svg="http://www.w3.org/2000/svg"><sodipodi:namedview
     id="namedview1"
     pagecolor="#030303"
     bordercolor="#000000"
     borderopacity="0.25"
     inkscape:showpageshadow="2"
     inkscape:pageopacity="0.0"
     inkscape:pagecheckerboard="false"
     inkscape:deskcolor="#d1d1d1"
     inkscape:document-units="mm"
     inkscape:zoom="1"
     inkscape:cx="191"
     inkscape:cy="337.5"
     inkscape:window-width="1920"
     inkscape:window-height="991"
     inkscape:window-x="-9"
     inkscape:window-y="-9"
     inkscape:window-maximized="1"
     inkscape:current-layer="g4"
     showgrid="false"
     showguides="false" /><defs
     id="defs1"><inkscape:path-effect
       effect="offset"
       id="path-effect7"
       is_visible="true"
       lpeversion="1.2"
       linejoin_type="miter"
       unit="mm"
       offset="6.7"
       miter_limit="4"
       attempt_force_join="false"
       update_on_knot_move="true" /><inkscape:path-effect
       effect="tiling"
       id="path-effect248"
       is_visible="true"
       lpeversion="1"
       unit="px"
       seed="1;1"
       lpesatellites=""
       num_rows="2"
       num_cols="2"
       gapx="0"
       gapy="0"
       offset="0"
       offset_type="false"
       scale="0"
       rotate="0"
       mirrorrowsx="false"
       mirrorrowsy="false"
       mirrorcolsx="false"
       mirrorcolsy="false"
       mirrortrans="false"
       shrink_interp="false"
       split_items="false"
       link_styles="false"
       interpolate_scalex="false"
       interpolate_scaley="true"
       interpolate_rotatex="false"
       interpolate_rotatey="true"
       random_scale="false"
       random_rotate="false"
       random_gap_y="false"
       random_gap_x="false"
       transformorigin="translate(0,-53.437201)" /><rect
       x="91.5"
       y="276.5"
       width="96.5"
       height="67.5"
       id="rect247" /><inkscape:path-effect
       effect="tiling"
       id="path-effect569"
       is_visible="true"
       lpeversion="1"
       unit="px"
       seed="1;1"
       lpesatellites=""
       num_rows="25"
       num_cols="1"
       gapx="0"
       gapy="-152"
       offset="0"
       offset_type="false"
       scale="0"
       rotate="0"
       mirrorrowsx="false"
       mirrorrowsy="false"
       mirrorcolsx="false"
       mirrorcolsy="false"
       mirrortrans="false"
       shrink_interp="false"
       split_items="false"
       link_styles="false"
       interpolate_scalex="false"
       interpolate_scaley="true"
       interpolate_rotatex="false"
       interpolate_rotatey="true"
       random_scale="false"
       random_rotate="false"
       random_gap_y="false"
       random_gap_x="false"
       transformorigin="" /><inkscape:path-effect
       effect="tiling"
       id="path-effect6"
       is_visible="true"
       lpeversion="1"
       unit="px"
       seed="1;1"
       lpesatellites=""
       num_rows="1"
       num_cols="2"
       gapx="0"
       gapy="0"
       offset="0"
       offset_type="false"
       scale="0"
       rotate="0"
       mirrorrowsx="false"
       mirrorrowsy="false"
       mirrorcolsx="false"
       mirrorcolsy="false"
       mirrortrans="false"
       shrink_interp="false"
       split_items="false"
       link_styles="false"
       interpolate_scalex="false"
       interpolate_scaley="true"
       interpolate_rotatex="false"
       interpolate_rotatey="true"
       random_scale="false"
       random_rotate="false"
       random_gap_y="false"
       random_gap_x="false"
       transformorigin="" /><rect
       x="323.97046"
       y="164.15225"
       width="73.137138"
       height="42.979359"
       id="rect3" /><rect
       x="117.47779"
       y="155.27499"
       width="108.28388"
       height="50.055756"
       id="rect2" /><rect
       x="126.16094"
       y="11.747779"
       width="281.43594"
       height="169.06587"
       id="rect1" /><inkscape:path-effect
       effect="tiling"
       id="path-effect23"
       is_visible="true"
       lpeversion="1"
       unit="px"
       seed="1;1"
       lpesatellites=""
       num_rows="115"
       num_cols="3"
       gapx="522.25"
       gapy="2"
       offset="0"
       offset_type="false"
       scale="0"
       rotate="0"
       mirrorrowsx="false"
       mirrorrowsy="false"
       mirrorcolsx="false"
       mirrorcolsy="false"
       mirrortrans="false"
       shrink_interp="false"
       split_items="false"
       link_styles="false"
       interpolate_scalex="false"
       interpolate_scaley="true"
       interpolate_rotatex="false"
       interpolate_rotatey="true"
       random_scale="false"
       random_rotate="false"
       random_gap_y="false"
       random_gap_x="false"
       transformorigin="" /><rect
       x="124.62862"
       y="156.80733"
       width="143.01645"
       height="38.307976"
       id="rect1586" /><rect
       x="381.54745"
       y="76.615952"
       width="136.3764"
       height="62.314308"
       id="rect1585" /><rect
       x="83.256004"
       y="79.680595"
       width="65.889717"
       height="62.825081"
       id="rect1584" /><rect
       x="173.66283"
       y="175.70592"
       width="207.37386"
       height="27.070971"
       id="rect1583" /><rect
       x="159.36118"
       y="-12.769326"
       width="747.26093"
       height="60.271217"
       id="rect1567" /><inkscape:path-effect
       effect="tiling"
       id="path-effect711"
       is_visible="true"
       lpeversion="1"
       unit="mm"
       seed="1;1"
       lpesatellites=""
       num_rows="57"
       num_cols="1"
       gapx="0"
       gapy="0.5"
       offset="0"
       offset_type="false"
       scale="0"
       rotate="0"
       mirrorrowsx="false"
       mirrorrowsy="false"
       mirrorcolsx="false"
       mirrorcolsy="false"
       mirrortrans="false"
       shrink_interp="false"
       split_items="false"
       link_styles="false"
       interpolate_scalex="false"
       interpolate_scaley="true"
       interpolate_rotatex="false"
       interpolate_rotatey="true"
       random_scale="false"
       random_rotate="false"
       random_gap_y="false"
       random_gap_x="false"
       transformorigin="" /><rect
       x="230.82785"
       y="78.155411"
       width="138.72234"
       height="63.954205"
       id="rect710" /><inkscape:path-effect
       effect="tiling"
       id="path-effect231"
       is_visible="true"
       lpeversion="1"
       unit="px"
       seed="1;1"
       lpesatellites=""
       num_rows="1"
       num_cols="51"
       gapx="2"
       gapy="0"
       offset="0"
       offset_type="false"
       scale="0"
       rotate="0"
       mirrorrowsx="false"
       mirrorrowsy="false"
       mirrorcolsx="false"
       mirrorcolsy="false"
       mirrortrans="false"
       shrink_interp="false"
       split_items="false"
       link_styles="false"
       interpolate_scalex="false"
       interpolate_scaley="true"
       interpolate_rotatex="false"
       interpolate_rotatey="true"
       random_scale="false"
       random_rotate="false"
       random_gap_y="false"
       random_gap_x="false"
       transformorigin="" /><inkscape:path-effect
       effect="tiling"
       id="path-effect229"
       is_visible="true"
       lpeversion="1"
       unit="px"
       seed="1;1"
       lpesatellites=""
       num_rows="1"
       num_cols="23"
       gapx="2"
       gapy="0"
       offset="0"
       offset_type="false"
       scale="0"
       rotate="0"
       mirrorrowsx="false"
       mirrorrowsy="false"
       mirrorcolsx="false"
       mirrorcolsy="false"
       mirrortrans="false"
       shrink_interp="false"
       split_items="false"
       link_styles="false"
       interpolate_scalex="false"
       interpolate_scaley="true"
       interpolate_rotatex="false"
       interpolate_rotatey="true"
       random_scale="false"
       random_rotate="false"
       random_gap_y="false"
       random_gap_x="false"
       transformorigin="" /><inkscape:path-effect
       effect="tiling"
       id="path-effect228"
       is_visible="true"
       lpeversion="1"
       unit="px"
       seed="1;1"
       lpesatellites=""
       num_rows="1"
       num_cols="5"
       gapx="3"
       gapy="0"
       offset="0"
       offset_type="false"
       scale="0"
       rotate="0"
       mirrorrowsx="false"
       mirrorrowsy="false"
       mirrorcolsx="false"
       mirrorcolsy="false"
       mirrortrans="false"
       shrink_interp="false"
       split_items="false"
       link_styles="false"
       interpolate_scalex="false"
       interpolate_scaley="true"
       interpolate_rotatex="false"
       interpolate_rotatey="true"
       random_scale="false"
       random_rotate="false"
       random_gap_y="false"
       random_gap_x="false"
       transformorigin="" /><inkscape:path-effect
       effect="interpolate"
       id="path-effect178"
       is_visible="true"
       lpeversion="1"
       trajectory="M 1.6217048,16.014331 16.217044,1.6892753"
       equidistant_spacing="true"
       steps="25" /><inkscape:path-effect
       effect="interpolate"
       id="path-effect176"
       is_visible="true"
       lpeversion="1"
       trajectory="M 1.6217048,16.014331 16.217044,1.6892753"
       equidistant_spacing="true"
       steps="25" /><inkscape:path-effect
       effect="interpolate"
       id="path-effect174"
       is_visible="true"
       lpeversion="1"
       trajectory="M 1.6217048,16.014331 16.217044,1.6892753"
       equidistant_spacing="true"
       steps="25" /><inkscape:path-effect
       effect="interpolate"
       id="path-effect21"
       is_visible="true"
       lpeversion="1"
       trajectory="M 1.6217048,16.014331 16.217044,1.6892753"
       equidistant_spacing="true"
       steps="25" /><inkscape:path-effect
       effect="tiling"
       id="path-effect5"
       is_visible="true"
       lpeversion="1"
       unit="in"
       seed="1;1"
       lpesatellites=""
       num_rows="9"
       num_cols="3"
       gapx="5.1"
       gapy="0.67"
       offset="0"
       offset_type="false"
       scale="0"
       rotate="0"
       mirrorrowsx="false"
       mirrorrowsy="false"
       mirrorcolsx="false"
       mirrorcolsy="false"
       mirrortrans="false"
       shrink_interp="false"
       split_items="false"
       link_styles="false"
       interpolate_scalex="false"
       interpolate_scaley="true"
       interpolate_rotatex="false"
       interpolate_rotatey="true"
       random_scale="false"
       random_rotate="false"
       random_gap_y="false"
       random_gap_x="false"
       transformorigin="" /><inkscape:path-effect
       effect="tiling"
       id="path-effect4"
       is_visible="true"
       lpeversion="1"
       unit="in"
       seed="1;1"
       lpesatellites=""
       num_rows="6"
       num_cols="1"
       gapx="0"
       gapy="2.12"
       offset="0"
       offset_type="false"
       scale="0"
       rotate="0"
       mirrorrowsx="false"
       mirrorrowsy="false"
       mirrorcolsx="false"
       mirrorcolsy="false"
       mirrortrans="false"
       shrink_interp="false"
       split_items="false"
       link_styles="false"
       interpolate_scalex="false"
       interpolate_scaley="true"
       interpolate_rotatex="false"
       interpolate_rotatey="true"
       random_scale="false"
       random_rotate="false"
       random_gap_y="false"
       random_gap_x="false"
       transformorigin="" /><inkscape:path-effect
       effect="tiling"
       id="path-effect3"
       is_visible="true"
       lpeversion="1"
       unit="in"
       seed="1;1"
       lpesatellites=""
       num_rows="1"
       num_cols="3"
       gapx="5.5"
       gapy="0"
       offset="0"
       offset_type="false"
       scale="0"
       rotate="0"
       mirrorrowsx="false"
       mirrorrowsy="false"
       mirrorcolsx="false"
       mirrorcolsy="false"
       mirrortrans="false"
       shrink_interp="false"
       split_items="false"
       link_styles="false"
       interpolate_scalex="false"
       interpolate_scaley="true"
       interpolate_rotatex="false"
       interpolate_rotatey="true"
       random_scale="false"
       random_rotate="false"
       random_gap_y="false"
       random_gap_x="false"
       transformorigin="" /><inkscape:path-effect
       effect="tiling"
       id="path-effect2"
       is_visible="true"
       lpeversion="1"
       unit="in"
       seed="1;1"
       lpesatellites=""
       num_rows="5"
       num_cols="7"
       gapx="1.57"
       gapy="0.28125"
       offset="0"
       offset_type="false"
       scale="0"
       rotate="0"
       mirrorrowsx="false"
       mirrorrowsy="false"
       mirrorcolsx="false"
       mirrorcolsy="false"
       mirrortrans="false"
       shrink_interp="false"
       split_items="false"
       link_styles="false"
       interpolate_scalex="false"
       interpolate_scaley="true"
       interpolate_rotatex="false"
       interpolate_rotatey="true"
       random_scale="false"
       random_rotate="false"
       random_gap_y="false"
       random_gap_x="false"
       transformorigin="" /><inkscape:path-effect
       effect="tiling"
       id="path-effect1"
       is_visible="true"
       lpeversion="1"
       unit="px"
       seed="1;1"
       lpesatellites=""
       num_rows="3"
       num_cols="3"
       gapx="0"
       gapy="0"
       offset="0"
       offset_type="false"
       scale="0"
       rotate="0"
       mirrorrowsx="false"
       mirrorrowsy="false"
       mirrorcolsx="false"
       mirrorcolsy="false"
       mirrortrans="false"
       shrink_interp="false"
       split_items="false"
       link_styles="false"
       interpolate_scalex="false"
       interpolate_scaley="true"
       interpolate_rotatex="false"
       interpolate_rotatey="true"
       random_scale="false"
       random_rotate="false"
       random_gap_y="false"
       random_gap_x="false"
       transformorigin="" /><rect
       x="124.62862"
       y="156.80733"
       width="143.01645"
       height="38.307976"
       id="rect1587" /><rect
       x="91.5"
       y="276.5"
       width="96.5"
       height="67.5"
       id="rect248" /></defs><g
     inkscape:label="Layer 1"
     inkscape:groupmode="layer"
     id="layer1"><g
       id="g1"
       style="display:inline;opacity:1"><g
         id="g4"
         transform="translate(0,-53.437201)"
         style="display:inline"><path
           id="path221"
           style="display:inline;opacity:1;fill:#000000;fill-opacity:1;fill-rule:evenodd;stroke:none;stroke-width:13.57800066;stroke-linecap:round;stroke-linejoin:miter;stroke-dasharray:none;stroke-dashoffset:0;stroke-opacity:0.39892474"
           d="m 44.664475,115.80044 c 0,-1.23718 0.144093,-2.33488 0.43231,-3.29308 0.300241,-0.97035 0.798573,-2.01952 1.495073,-3.14753 0.696511,-1.12802 1.537111,-2.06803 2.52182,-2.82004 0.984715,-0.76414 2.347706,-1.43732 4.088962,-2.01952 1.224886,-0.40026 2.774011,-0.60039 4.647365,-0.60039 1.260913,0 2.491796,0.16978 3.692667,0.50943 1.212877,0.33962 2.311674,0.81265 3.296386,1.41911 0.984715,0.60646 1.969428,1.54042 2.954133,2.80184 0.684494,0.87331 1.20087,1.81333 1.549124,2.82005 0.45633,1.32209 0.684494,2.68662 0.684494,4.09361 0,1.60106 -0.156111,2.9292 -0.468335,3.98444 -0.300204,1.05524 -0.810587,2.09835 -1.53111,3.12934 -0.564412,0.80053 -1.53111,1.72235 -2.900105,2.76545 -0.912654,0.7035 -2.047468,1.27357 -3.404457,1.71023 -1.356986,0.42451 -2.822039,0.63678 -4.395179,0.63678 -1.597151,0 -3.020185,-0.18801 -4.269084,-0.564 -1.248902,-0.37603 -2.293666,-0.83086 -3.134266,-1.36455 -0.828595,-0.54582 -1.687217,-1.34634 -2.575863,-2.40157 -0.876637,-1.05525 -1.543116,-2.21966 -1.999442,-3.49322 -0.456328,-1.27356 -0.684493,-2.66236 -0.684493,-4.16638 z m 12.501029,11.31654 c 1.008729,0 2.053493,-0.13948 3.134267,-0.41845 1.092796,-0.2911 2.059493,-0.76414 2.900105,-1.41912 0.8406,-0.66711 1.495073,-1.41912 1.963416,-2.25603 0.480348,-0.84904 0.864623,-1.93462 1.152832,-3.25669 0.288228,-1.32209 0.432317,-2.64417 0.432317,-3.96625 0,-1.64957 -0.240155,-3.28096 -0.720522,-4.89415 -0.372269,-1.22504 -0.978715,-2.31667 -1.819319,-3.27487 -0.840612,-0.97034 -1.855341,-1.71629 -3.044202,-2.23784 -1.188861,-0.53369 -2.455766,-0.80053 -3.800753,-0.80053 -1.092784,0 -2.161556,0.18196 -3.20631,0.54582 -1.044764,0.36388 -1.903378,0.83084 -2.575863,1.40092 -0.672483,0.55794 -1.29694,1.35847 -1.873358,2.40158 -0.57641,1.03098 -1.014725,2.17112 -1.314944,3.42043 -0.300207,1.24931 -0.450328,2.35308 -0.450328,3.31128 0,1.00673 0.150102,2.14687 0.450328,3.42043 0.300204,1.27357 0.708502,2.37732 1.224879,3.31128 0.528384,0.93396 1.170847,1.7648 1.927399,2.49255 0.768557,0.71562 1.627164,1.2675 2.575855,1.65564 0.948691,0.37601 1.96342,0.564 3.044201,0.564 z m 25.83744,-20.67473 v -0.49866 c 0.182298,-0.0429 0.327072,-0.0698 0.434312,-0.0804 l 1.512072,-0.0804 c 1.254695,-0.10725 2.659522,-0.19303 4.214489,-0.25739 0.621985,-0.0211 1.603225,-0.0321 2.943703,-0.0321 1.823072,0 3.158192,0.13408 4.005373,0.40214 1.23325,0.39679 2.150148,0.99733 2.750687,1.80163 0.611265,0.79356 0.916889,1.67828 0.916889,2.65415 0,1.58714 -1.131372,2.92226 -3.394107,4.00538 l -0.08043,0.12867 c 1.158177,0.31102 2.107248,0.74532 2.847205,1.30296 0.739939,0.55764 1.308303,1.23861 1.705083,2.0429 0.28955,0.58981 0.43432,1.36194 0.43432,2.31636 0,1.59786 -0.72922,3.02415 -2.187671,4.27884 -1.447723,1.24397 -3.447731,1.86595 -6.000021,1.86595 h -2.396783 l -2.428966,0.0804 c -2.144777,0.0211 -3.399473,0.0321 -3.764086,0.0321 -0.375329,0 -0.745316,-0.0158 -1.109918,-0.0483 v -0.17697 c 0,-0.12868 0.02683,-0.21986 0.08046,-0.27349 0.06432,-0.0643 0.187662,-0.11797 0.369961,-0.16087 1.340479,-0.27882 2.096512,-0.46649 2.268102,-0.56301 0.182298,-0.10724 0.305607,-0.27345 0.369963,-0.49866 0.128675,-0.42896 0.193032,-1.53351 0.193032,-3.31368 0,-0.16083 -0.0053,-0.3646 -0.01625,-0.61126 -0.02116,-0.7185 -0.03212,-1.13137 -0.03212,-1.23862 V 117.847 c 0,-2.83111 -0.03212,-5.30297 -0.09652,-7.41557 l -0.01625,-3.23326 -0.01588,-0.40213 c -0.911532,-0.12869 -1.715824,-0.20913 -2.412874,-0.2413 -0.450412,-0.0109 -0.815014,-0.0483 -1.093836,-0.11257 z m 6.386072,8.13945 c 0.536193,0.10725 1.099204,0.16083 1.689014,0.16083 2.31636,0 3.88741,-0.50938 4.713151,-1.52815 0.825741,-1.01877 1.238611,-2.03218 1.238611,-3.04023 0,-0.4504 -0.07506,-0.90617 -0.225228,-1.36729 -0.139409,-0.47186 -0.396783,-0.89545 -0.77212,-1.27078 -0.364602,-0.37534 -0.820372,-0.65416 -1.367299,-0.83647 -0.932973,-0.31097 -1.887404,-0.46649 -2.863278,-0.46649 -0.911524,0 -1.758715,0.10188 -2.541557,0.30564 -0.01096,0.2252 -0.01625,0.39144 -0.01625,0.49867 0,0.10724 0.01096,0.41287 0.03212,0.91688 0.01096,0.32172 0.01587,0.64344 0.01587,0.96516 l -0.04829,1.9464 0.01625,1.15817 0.112577,2.26811 z m 3.780168,10.93837 c 1.061672,-0.0751 1.951754,-0.30024 2.670255,-0.67562 0.332441,-0.1716 0.723865,-0.4772 1.174266,-0.91688 0.461129,-0.45041 0.815021,-0.9866 1.061659,-1.60858 0.257391,-0.622 0.386064,-1.22254 0.386064,-1.80161 0,-0.43969 -0.09115,-0.98124 -0.273486,-1.62468 -0.1716,-0.64343 -0.471856,-1.20644 -0.900803,-1.68901 -0.418238,-0.4933 -1.045581,-0.89546 -1.88205,-1.20644 -0.836466,-0.32171 -1.758715,-0.48258 -2.766763,-0.48258 -1.951747,0 -3.045585,0.0374 -3.281516,0.11261 -0.01096,0.24666 -0.01587,0.42896 -0.01587,0.54692 l 0.01587,0.59518 -0.01587,1.20644 v 1.3673 c 0.03212,2.52011 0.09115,4.01073 0.176933,4.47186 0.08578,0.46113 0.37533,0.85791 0.86864,1.19036 0.50402,0.33243 1.431636,0.50402 2.782847,0.51474 z m 14.905026,-19.17868 c -0.12361,-0.14017 0.30376,-0.0464 0.35527,-0.0464 0.35009,0 0.92675,0.0208 1.72993,0.0619 0.42219,0.0102 0.71051,0.0155 0.86498,0.0155 0.22654,0 0.70535,-0.0208 1.43647,-0.0619 l 2.62579,-0.15452 c 0.68991,-0.0619 1.4931,-0.0927 2.40956,-0.0927 1.61666,0 2.90382,0.23177 3.86146,0.69529 0.95765,0.45323 1.6939,1.16912 2.20876,2.14768 0.52517,0.97856 0.78774,1.95197 0.78774,2.92023 0,1.61719 -0.56635,3.01293 -1.69904,4.18719 -1.13271,1.17427 -2.6567,1.76141 -4.57199,1.76141 -0.53544,0 -0.98338,-0.0516 -1.34378,-0.15452 -0.3604,-0.1133 -0.7723,-0.32446 -1.23568,-0.63349 -0.19567,-0.13389 -0.31407,-0.27295 -0.35526,-0.41718 0.0413,-0.0721 0.0978,-0.12361 0.16991,-0.15452 0.14416,0 0.29347,0.031 0.44793,0.0927 0.35012,0.12358 0.79289,0.1854 1.32834,0.1854 0.81349,0 1.58062,-0.20088 2.30143,-0.60258 0.73111,-0.40173 1.28201,-0.97341 1.65272,-1.71506 0.37068,-0.74163 0.55604,-1.52448 0.55604,-2.34853 0,-0.80345 -0.19567,-1.58114 -0.58694,-2.33309 -0.39129,-0.76225 -0.90615,-1.36999 -1.54459,-1.8232 -0.36041,-0.25754 -0.91645,-0.47384 -1.66815,-0.64895 -0.74141,-0.17512 -1.31804,-0.26264 -1.72994,-0.26264 -1.27686,0 -2.0337,0.0927 -2.27054,0.27809 l -0.0155,0.21632 0.0618,1.74595 -0.0155,0.30901 c -0.0208,0.2781 -0.031,0.7056 -0.031,1.28243 0,2.10132 0.031,3.4095 0.0927,3.92453 v 0.86525 l 0.20078,7.06108 c 0,0.10301 -0.0155,0.29355 -0.0463,0.57168 -0.0208,0.2781 -0.031,0.52018 -0.031,0.7262 0,0.49442 0.0412,0.8704 0.12357,1.12792 0.24711,0.0721 0.96794,0.24204 2.16242,0.50987 0.55606,0.13389 0.85981,0.21117 0.91131,0.23177 0.0824,0.031 0.15444,0.0979 0.21624,0.20086 -0.0412,0.15452 -0.0978,0.25235 -0.16991,0.29355 -0.0618,0.0516 -0.1905,0.0773 -0.38615,0.0773 -0.12357,0 -0.41189,-0.0257 -0.86497,-0.0773 -0.88556,-0.0927 -1.58062,-0.13907 -2.08518,-0.13907 l -2.71848,0.10815 -1.62182,-0.0463 c -0.10297,0 -0.40159,0.0102 -0.89586,0.031 l -0.0155,-0.40173 2.00795,-0.38627 c 0.3295,-0.0927 0.53031,-0.18539 0.60239,-0.27809 0.10298,-0.14421 0.15445,-0.42749 0.15445,-0.8498 0,-0.0927 0.004,-0.29356 0.0155,-0.6026 0.0102,-0.2163 0.0155,-0.51503 0.0155,-0.89616 0,-1.21545 -0.0515,-3.80607 -0.15445,-7.7718 -0.0412,-1.85411 -0.0618,-3.73912 -0.0618,-5.65504 v -0.26264 c 0,-0.74165 -0.11325,-1.21032 -0.33981,-1.40604 -0.381,-0.33991 -1.33349,-0.61803 -2.85749,-0.83435 -0.0516,-0.11329 -0.0772,-0.20599 -0.0772,-0.27809 0,-0.0825 0.17822,-0.19658 0.0927,-0.29356 z M 56.905241,98.963167 C 46.026554,99.35842 40.284449,108.10912 41.42612,117.55011 c 1.141672,9.441 7.437324,15.37133 16.971247,14.75911 9.533931,-0.61221 15.43227,-7.77287 15.11655,-16.855 C 73.198181,106.37209 67.783925,98.567914 56.905241,98.963167 Z M 82.708922,92.319812 106.37462,91.680858 101.36538,149.66604 79.27739,134.1625 Z M 58.789415,64.21664 52.596881,74.036141 c 3.256979,-5.362939 8.592338,-9.578884 19.691847,-10.613757 z m -15.505977,95.628 3.569575,9.4734 19.233325,-2.16979 c -8.854357,-0.30969 -18.536232,0.78357 -22.8029,-7.30361 z m -5.286552,-62.423145 -3.658322,41.052865 41.789697,-5.12051 3.05682,-40.724515 z m -2.820157,44.533925 10.82706,28.85949 33.358784,-4.14434 -3.313199,-29.40082 z M 38.036331,95.051377 58.023998,62.695397 86.127022,60.929395 78.76107,89.54927 Z M 22.269061,100.7954 34.663967,98.017723 30.788706,138.64463 17.930347,147.0043 Z M 9.8347057,76.101297 35.77823,94.613256 44.386632,80.361 33.924414,73.323617 Z m -1.8972059,1.380576 0.019651,27.102347 10.6890122,7.59647 0.729693,-12.974344 13.469681,-3.283516 z"
           inkscape:export-filename="obp logo2.svg"
           inkscape:export-xdpi="300"
           inkscape:export-ydpi="300" /><path
           id="path1"
           style="display:none;opacity:1;fill:#ffffff;fill-opacity:0.198925;fill-rule:evenodd;stroke:none;stroke-width:13.578;stroke-linecap:round;stroke-linejoin:miter;stroke-dasharray:none;stroke-dashoffset:0;stroke-opacity:0.398925"
           d="m 94.914062,53.664062 -40.769531,2.5625 -9.873047,15.982422 -8.660156,-5.824218 -27.1718749,3.132812 -7.2070275,0.830078 0.00586,7.851563 0.021484,29.843751 12.7480474,9.06055 -4.0449224,43.07031 20.0117184,-13.00781 11.611328,30.94921 45.177735,-5.61328 -3.048828,-27.03711 23.324212,16.36914 2.4961,-28.90625 h 0.002 l 1.70898,0.0488 2.74024,-0.10937 c 0.19678,0.002 0.57066,0.0221 1.33008,0.10156 l -0.0606,-0.008 c 0.49318,0.0562 1.05538,0.11914 1.62305,0.11914 0.57571,0 2.35788,0.0608 4.27343,-1.33399 0.13839,-0.0971 0.27553,-0.1936 0.40039,-0.29492 1.6512,-1.33992 2.16425,-2.99766 2.35547,-3.71484 l 0.73047,-2.74219 -0.99414,-1.65625 c 1.38293,-0.6137 2.68162,-1.47925 3.83203,-2.67187 2.33324,-2.41888 3.57617,-5.46232 3.57617,-8.83985 0,-2.23889 -0.58818,-4.22157 -1.5664,-6.05469 -1.18372,-2.2423 -2.876,-3.93307 -5.24219,-5.05859 -2.11468,-1.014862 -4.58206,-1.349609 -6.74805,-1.349609 -1.06198,0 -2.07837,0.03557 -3.00976,0.119141 l 0.20703,-0.01367 -2.2793,0.134766 1.28125,-14.822266 -26.976556,0.728516 z m 29.330078,47.048828 c 0.0108,0.005 0.0224,0.008 0.0332,0.0137 l -0.0547,-0.0254 c 0.008,0.004 0.0139,0.008 0.0215,0.0117 z m 5.24219,5.05859 c 0.003,0.006 0.007,0.0101 0.01,0.0156 l -0.0254,-0.0488 c 0.006,0.0108 0.01,0.0224 0.0156,0.0332 z m -11.7168,4.36915 c 0.0866,0.0185 0.22656,0.0488 0.22656,0.0488 l 0.25586,0.0957 c -0.14996,-0.0599 -0.32502,-0.0922 -0.48242,-0.14453 z m -13.13672,6.92578 0.0273,0.0898 c -0.005,-0.0195 -0.0142,-0.0372 -0.0195,-0.0566 -0.003,-0.0101 -0.005,-0.0232 -0.008,-0.0332 z m -5.691404,13.71484 -0.0293,0.0156 c 0.0041,-0.002 0.0077,-0.006 0.01172,-0.008 0.0058,-0.003 0.01181,-0.005 0.01758,-0.008 z"
           inkscape:export-filename="obp logo2.svg"
           inkscape:export-xdpi="300"
           inkscape:export-ydpi="300"
           sodipodi:nodetypes="cccccccccccccccccccccscscccssccscccccccccccccccccccccccccccccc" /></g></g></g></svg>
